# xmcd
# 
# Track frame offsets:
#     150
#     19734
#     61738
#     79074
#     99736
#     125376
#     146073
#     170586
#     203138
#     220978
#     252933
# 
# Disc length: 3564
# 
# Revision: 0
# Processed by: cddbd v1.5.2PL0 Copyright (c) Steve Scherf et al.
# Submitted via: fre:ac v1.0.31
# 
DISCID=9b0dea0b
DTITLE=Various Artist - Sean Carney's Blues For A Cure Blues Cures Studio Jam, Vol. 6
DYEAR=2014
DGENRE=Blues
TTITLE0=Mark May Band and Soul Satyr Horns w/Silky Ray - If You Love Me Like You Say
TTITLE1=Mark May Band and Soul Satyr Horns w/Noah Wotherspoon - Lights Are On But Nobody's Home
TTITLE2=Sean Carney, Noah Wotherspoon and Soul Satyr Horns - Get Your Business Straight
TTITLE3=Noah Wotherspoon, JP Soars, Sean Carney and Mark May - All Got A Baby
TTITLE4=JP Soars, Noah Wotherspoon, Sean Carney and Steev Inglish - Same Thing
TTITLE5=Jonn Richardson and Sean Carney - Follow Your Heart
TTITLE6=Steev Inglish, JP Soars and Sean Carney - Changed My Way Of Living
TTITLE7=Silky Ray, Noah Wotherspoon, Sean Carney, JP Soars and Steev Inglish - New Kind Of Love
TTITLE8=Sean Carney and Jonn Richardson - Smokestack Lightning
TTITLE9=Mark May Band and Soul Satyr Horns - You're Leaving Baby
TTITLE10=JP Soars and The Red Hots - The Road Has Got Me Down
EXTD=
EXTT0=
EXTT1=
EXTT2=
EXTT3=
EXTT4=
EXTT5=
EXTT6=
EXTT7=
EXTT8=
EXTT9=
EXTT10=
PLAYORDER=
